<mxfile host="app.diagrams.net" agent="Mozilla/5.0 (Macintosh; Intel Mac OS X 10_15_7) AppleWebKit/537.36 (KHTML, like Gecko) Chrome/128.0.0.0 Safari/537.36" version="24.8.4">
  <diagram name="Página-1" id="XNuNWmpdLETf13pGNEQB">
    <mxGraphModel dx="1393" dy="808" grid="0" gridSize="10" guides="1" tooltips="1" connect="1" arrows="1" fold="1" page="1" pageScale="1" pageWidth="1200" pageHeight="750" math="0" shadow="0">
      <root>
        <mxCell id="0" />
        <mxCell id="1" parent="0" />
        <mxCell id="O53660Ks89ONrikDZV8l-3" value="" style="rounded=0;whiteSpace=wrap;html=1;fillColor=none;strokeColor=#CC6600;" vertex="1" parent="1">
          <mxGeometry x="114" y="46" width="1045" height="669" as="geometry" />
        </mxCell>
        <mxCell id="O53660Ks89ONrikDZV8l-2" value="" style="outlineConnect=0;dashed=0;verticalLabelPosition=bottom;verticalAlign=top;align=center;html=1;shape=mxgraph.aws3.cloud_2;fillColor=#F58534;gradientColor=none;" vertex="1" parent="1">
          <mxGeometry x="112" y="46" width="50" height="50" as="geometry" />
        </mxCell>
        <mxCell id="O53660Ks89ONrikDZV8l-5" value="Região sa-east-1 (São Paulo)" style="points=[[0,0],[0.25,0],[0.5,0],[0.75,0],[1,0],[1,0.25],[1,0.5],[1,0.75],[1,1],[0.75,1],[0.5,1],[0.25,1],[0,1],[0,0.75],[0,0.5],[0,0.25]];outlineConnect=0;gradientColor=none;html=1;whiteSpace=wrap;fontSize=12;fontStyle=0;container=0;pointerEvents=0;collapsible=0;recursiveResize=0;shape=mxgraph.aws4.group;grIcon=mxgraph.aws4.group_region;strokeColor=#00A4A6;fillColor=none;verticalAlign=top;align=left;spacingLeft=30;fontColor=#147EBA;dashed=1;" vertex="1" parent="1">
          <mxGeometry x="170" y="113" width="948" height="577" as="geometry" />
        </mxCell>
        <mxCell id="O53660Ks89ONrikDZV8l-12" value="&lt;font color=&quot;#cc6600&quot;&gt;AWS Cloud&lt;/font&gt;" style="text;html=1;align=center;verticalAlign=middle;whiteSpace=wrap;rounded=0;" vertex="1" parent="1">
          <mxGeometry x="162" y="56" width="79" height="30" as="geometry" />
        </mxCell>
        <mxCell id="O53660Ks89ONrikDZV8l-4" value="&lt;font color=&quot;#b266ff&quot;&gt;VPC&lt;/font&gt;" style="points=[[0,0],[0.25,0],[0.5,0],[0.75,0],[1,0],[1,0.25],[1,0.5],[1,0.75],[1,1],[0.75,1],[0.5,1],[0.25,1],[0,1],[0,0.75],[0,0.5],[0,0.25]];outlineConnect=0;gradientColor=none;html=1;whiteSpace=wrap;fontSize=12;fontStyle=0;container=0;pointerEvents=0;collapsible=0;recursiveResize=0;shape=mxgraph.aws4.group;grIcon=mxgraph.aws4.group_vpc2;strokeColor=#8C4FFF;fillColor=none;verticalAlign=top;align=left;spacingLeft=30;fontColor=#AAB7B8;dashed=0;" vertex="1" parent="1">
          <mxGeometry x="231" y="206" width="842" height="423" as="geometry" />
        </mxCell>
        <mxCell id="O53660Ks89ONrikDZV8l-14" value="" style="group" vertex="1" connectable="0" parent="1">
          <mxGeometry x="322" y="167" width="183" height="497" as="geometry" />
        </mxCell>
        <mxCell id="O53660Ks89ONrikDZV8l-6" value="&amp;nbsp; &amp;nbsp; &amp;nbsp; &amp;nbsp; &amp;nbsp; &amp;nbsp; &amp;nbsp; AZ-A" style="sketch=0;outlineConnect=0;gradientColor=none;html=1;whiteSpace=wrap;fontSize=12;fontStyle=0;shape=mxgraph.aws4.group;grIcon=mxgraph.aws4.group_availability_zone;strokeColor=#545B64;fillColor=none;verticalAlign=top;align=left;spacingLeft=30;fontColor=#545B64;dashed=1;" vertex="1" parent="O53660Ks89ONrikDZV8l-14">
          <mxGeometry width="183" height="497" as="geometry" />
        </mxCell>
        <mxCell id="O53660Ks89ONrikDZV8l-10" value="Public subnet" style="points=[[0,0],[0.25,0],[0.5,0],[0.75,0],[1,0],[1,0.25],[1,0.5],[1,0.75],[1,1],[0.75,1],[0.5,1],[0.25,1],[0,1],[0,0.75],[0,0.5],[0,0.25]];outlineConnect=0;gradientColor=none;html=1;whiteSpace=wrap;fontSize=12;fontStyle=0;container=1;pointerEvents=0;collapsible=0;recursiveResize=0;shape=mxgraph.aws4.group;grIcon=mxgraph.aws4.group_security_group;grStroke=0;strokeColor=#7AA116;fillColor=#F2F6E8;verticalAlign=top;align=left;spacingLeft=30;fontColor=#248814;dashed=0;" vertex="1" parent="O53660Ks89ONrikDZV8l-14">
          <mxGeometry x="26.5" y="63" width="130" height="130" as="geometry" />
        </mxCell>
        <mxCell id="O53660Ks89ONrikDZV8l-11" value="Private subnet" style="points=[[0,0],[0.25,0],[0.5,0],[0.75,0],[1,0],[1,0.25],[1,0.5],[1,0.75],[1,1],[0.75,1],[0.5,1],[0.25,1],[0,1],[0,0.75],[0,0.5],[0,0.25]];outlineConnect=0;gradientColor=none;html=1;whiteSpace=wrap;fontSize=12;fontStyle=0;container=1;pointerEvents=0;collapsible=0;recursiveResize=0;shape=mxgraph.aws4.group;grIcon=mxgraph.aws4.group_security_group;grStroke=0;strokeColor=#00A4A6;fillColor=#E6F6F7;verticalAlign=top;align=left;spacingLeft=30;fontColor=#147EBA;dashed=0;" vertex="1" parent="O53660Ks89ONrikDZV8l-14">
          <mxGeometry x="26.5" y="296" width="130" height="130" as="geometry" />
        </mxCell>
        <mxCell id="O53660Ks89ONrikDZV8l-27" value="&lt;b&gt;EC2&lt;/b&gt;" style="sketch=0;points=[[0,0,0],[0.25,0,0],[0.5,0,0],[0.75,0,0],[1,0,0],[0,1,0],[0.25,1,0],[0.5,1,0],[0.75,1,0],[1,1,0],[0,0.25,0],[0,0.5,0],[0,0.75,0],[1,0.25,0],[1,0.5,0],[1,0.75,0]];outlineConnect=0;fontColor=#232F3E;fillColor=#ED7100;strokeColor=#ffffff;dashed=0;verticalLabelPosition=bottom;verticalAlign=top;align=center;html=1;fontSize=12;fontStyle=0;aspect=fixed;shape=mxgraph.aws4.resourceIcon;resIcon=mxgraph.aws4.ec2;" vertex="1" parent="O53660Ks89ONrikDZV8l-14">
          <mxGeometry x="66.5" y="103" width="50" height="50" as="geometry" />
        </mxCell>
        <mxCell id="O53660Ks89ONrikDZV8l-16" value="" style="group" vertex="1" connectable="0" parent="1">
          <mxGeometry x="586" y="169" width="183" height="497" as="geometry" />
        </mxCell>
        <mxCell id="O53660Ks89ONrikDZV8l-17" value="&amp;nbsp; &amp;nbsp; &amp;nbsp; &amp;nbsp; &amp;nbsp; &amp;nbsp; &amp;nbsp; AZ-B" style="sketch=0;outlineConnect=0;gradientColor=none;html=1;whiteSpace=wrap;fontSize=12;fontStyle=0;shape=mxgraph.aws4.group;grIcon=mxgraph.aws4.group_availability_zone;strokeColor=#545B64;fillColor=none;verticalAlign=top;align=left;spacingLeft=30;fontColor=#545B64;dashed=1;" vertex="1" parent="O53660Ks89ONrikDZV8l-16">
          <mxGeometry width="183" height="497" as="geometry" />
        </mxCell>
        <mxCell id="O53660Ks89ONrikDZV8l-18" value="Public subnet" style="points=[[0,0],[0.25,0],[0.5,0],[0.75,0],[1,0],[1,0.25],[1,0.5],[1,0.75],[1,1],[0.75,1],[0.5,1],[0.25,1],[0,1],[0,0.75],[0,0.5],[0,0.25]];outlineConnect=0;gradientColor=none;html=1;whiteSpace=wrap;fontSize=12;fontStyle=0;container=1;pointerEvents=0;collapsible=0;recursiveResize=0;shape=mxgraph.aws4.group;grIcon=mxgraph.aws4.group_security_group;grStroke=0;strokeColor=#7AA116;fillColor=#F2F6E8;verticalAlign=top;align=left;spacingLeft=30;fontColor=#248814;dashed=0;" vertex="1" parent="O53660Ks89ONrikDZV8l-16">
          <mxGeometry x="26.5" y="63" width="130" height="130" as="geometry" />
        </mxCell>
        <mxCell id="O53660Ks89ONrikDZV8l-19" value="Private subnet" style="points=[[0,0],[0.25,0],[0.5,0],[0.75,0],[1,0],[1,0.25],[1,0.5],[1,0.75],[1,1],[0.75,1],[0.5,1],[0.25,1],[0,1],[0,0.75],[0,0.5],[0,0.25]];outlineConnect=0;gradientColor=none;html=1;whiteSpace=wrap;fontSize=12;fontStyle=0;container=1;pointerEvents=0;collapsible=0;recursiveResize=0;shape=mxgraph.aws4.group;grIcon=mxgraph.aws4.group_security_group;grStroke=0;strokeColor=#00A4A6;fillColor=#E6F6F7;verticalAlign=top;align=left;spacingLeft=30;fontColor=#147EBA;dashed=0;" vertex="1" parent="O53660Ks89ONrikDZV8l-16">
          <mxGeometry x="26.5" y="296" width="130" height="130" as="geometry" />
        </mxCell>
        <mxCell id="O53660Ks89ONrikDZV8l-28" value="&lt;b&gt;EC2&lt;/b&gt;" style="sketch=0;points=[[0,0,0],[0.25,0,0],[0.5,0,0],[0.75,0,0],[1,0,0],[0,1,0],[0.25,1,0],[0.5,1,0],[0.75,1,0],[1,1,0],[0,0.25,0],[0,0.5,0],[0,0.75,0],[1,0.25,0],[1,0.5,0],[1,0.75,0]];outlineConnect=0;fontColor=#232F3E;fillColor=#ED7100;strokeColor=#ffffff;dashed=0;verticalLabelPosition=bottom;verticalAlign=top;align=center;html=1;fontSize=12;fontStyle=0;aspect=fixed;shape=mxgraph.aws4.resourceIcon;resIcon=mxgraph.aws4.ec2;" vertex="1" parent="O53660Ks89ONrikDZV8l-16">
          <mxGeometry x="66.5" y="103" width="50" height="50" as="geometry" />
        </mxCell>
        <mxCell id="O53660Ks89ONrikDZV8l-20" value="" style="group" vertex="1" connectable="0" parent="1">
          <mxGeometry x="834" y="171" width="183" height="497" as="geometry" />
        </mxCell>
        <mxCell id="O53660Ks89ONrikDZV8l-21" value="&amp;nbsp; &amp;nbsp; &amp;nbsp; &amp;nbsp; &amp;nbsp; &amp;nbsp; &amp;nbsp; AZ-C" style="sketch=0;outlineConnect=0;gradientColor=none;html=1;whiteSpace=wrap;fontSize=12;fontStyle=0;shape=mxgraph.aws4.group;grIcon=mxgraph.aws4.group_availability_zone;strokeColor=#545B64;fillColor=none;verticalAlign=top;align=left;spacingLeft=30;fontColor=#545B64;dashed=1;" vertex="1" parent="O53660Ks89ONrikDZV8l-20">
          <mxGeometry width="183" height="497" as="geometry" />
        </mxCell>
        <mxCell id="O53660Ks89ONrikDZV8l-22" value="Public subnet" style="points=[[0,0],[0.25,0],[0.5,0],[0.75,0],[1,0],[1,0.25],[1,0.5],[1,0.75],[1,1],[0.75,1],[0.5,1],[0.25,1],[0,1],[0,0.75],[0,0.5],[0,0.25]];outlineConnect=0;gradientColor=none;html=1;whiteSpace=wrap;fontSize=12;fontStyle=0;container=1;pointerEvents=0;collapsible=0;recursiveResize=0;shape=mxgraph.aws4.group;grIcon=mxgraph.aws4.group_security_group;grStroke=0;strokeColor=#7AA116;fillColor=#F2F6E8;verticalAlign=top;align=left;spacingLeft=30;fontColor=#248814;dashed=0;" vertex="1" parent="O53660Ks89ONrikDZV8l-20">
          <mxGeometry x="26.5" y="63" width="130" height="130" as="geometry" />
        </mxCell>
        <mxCell id="O53660Ks89ONrikDZV8l-23" value="Private subnet" style="points=[[0,0],[0.25,0],[0.5,0],[0.75,0],[1,0],[1,0.25],[1,0.5],[1,0.75],[1,1],[0.75,1],[0.5,1],[0.25,1],[0,1],[0,0.75],[0,0.5],[0,0.25]];outlineConnect=0;gradientColor=none;html=1;whiteSpace=wrap;fontSize=12;fontStyle=0;container=1;pointerEvents=0;collapsible=0;recursiveResize=0;shape=mxgraph.aws4.group;grIcon=mxgraph.aws4.group_security_group;grStroke=0;strokeColor=#00A4A6;fillColor=#E6F6F7;verticalAlign=top;align=left;spacingLeft=30;fontColor=#147EBA;dashed=0;" vertex="1" parent="O53660Ks89ONrikDZV8l-20">
          <mxGeometry x="26.5" y="296" width="130" height="130" as="geometry" />
        </mxCell>
        <mxCell id="O53660Ks89ONrikDZV8l-26" value="" style="ellipse;whiteSpace=wrap;html=1;aspect=fixed;fillColor=default;strokeColor=none;" vertex="1" parent="1">
          <mxGeometry x="208" y="393" width="45" height="45" as="geometry" />
        </mxCell>
        <mxCell id="O53660Ks89ONrikDZV8l-32" style="edgeStyle=orthogonalEdgeStyle;rounded=0;orthogonalLoop=1;jettySize=auto;html=1;" edge="1" parent="1" source="O53660Ks89ONrikDZV8l-24">
          <mxGeometry relative="1" as="geometry">
            <mxPoint x="678" y="349" as="targetPoint" />
          </mxGeometry>
        </mxCell>
        <mxCell id="O53660Ks89ONrikDZV8l-24" value="&lt;span style=&quot;background-color: rgb(255, 255, 255);&quot;&gt;&lt;b&gt;Internet &lt;br&gt;Gateway&lt;/b&gt;&lt;/span&gt;" style="sketch=0;outlineConnect=0;fontColor=#232F3E;gradientColor=none;fillColor=#8C4FFF;strokeColor=none;dashed=0;verticalLabelPosition=bottom;verticalAlign=top;align=center;html=1;fontSize=12;fontStyle=0;aspect=fixed;pointerEvents=1;shape=mxgraph.aws4.internet_gateway;" vertex="1" parent="1">
          <mxGeometry x="209" y="393" width="45" height="45" as="geometry" />
        </mxCell>
        <mxCell id="O53660Ks89ONrikDZV8l-30" style="edgeStyle=orthogonalEdgeStyle;rounded=0;orthogonalLoop=1;jettySize=auto;html=1;" edge="1" parent="1" source="O53660Ks89ONrikDZV8l-29" target="O53660Ks89ONrikDZV8l-24">
          <mxGeometry relative="1" as="geometry" />
        </mxCell>
        <mxCell id="O53660Ks89ONrikDZV8l-29" value="&lt;b&gt;Usuário&lt;/b&gt;" style="verticalLabelPosition=bottom;html=1;verticalAlign=top;align=center;strokeColor=none;fillColor=#A680B8;shape=mxgraph.azure.user;" vertex="1" parent="1">
          <mxGeometry x="20" y="390.5" width="47.5" height="50" as="geometry" />
        </mxCell>
        <mxCell id="O53660Ks89ONrikDZV8l-33" value="" style="endArrow=classic;html=1;rounded=0;" edge="1" parent="1">
          <mxGeometry width="50" height="50" relative="1" as="geometry">
            <mxPoint x="415" y="415" as="sourcePoint" />
            <mxPoint x="414" y="345" as="targetPoint" />
          </mxGeometry>
        </mxCell>
      </root>
    </mxGraphModel>
  </diagram>
</mxfile>
